<svg width="1694" height="576" viewBox="0 0 1694 576" fill="none" xmlns="http://www.w3.org/2000/svg">
<path d="M1571.4 259.971C1565.67 258.848 1561.13 256.489 1517.21 231.499C1474.72 207.296 1470.35 204.657 1467 201.344C1462.97 197.356 1459.57 191.404 1458.49 186.462C1458.1 184.553 1457.93 165.965 1458.04 128.34L1458.21 73.0266L1459.51 69.8819C1461.22 65.6702 1464.62 60.5038 1467.46 57.8083C1470.07 55.3374 1561.13 2.99982 1565.95 1.20282C1570.04 -0.313398 1581.16 -0.42571 1585.52 1.03435C1590.35 2.66288 1681.58 55.0005 1684.59 57.8644C1687.99 61.1777 1690.94 65.7263 1692.53 70.275L1693.95 74.1497V129.52C1693.95 178.825 1693.83 185.171 1693.04 187.922C1691.45 193.257 1688.84 197.525 1684.93 201.344C1681.52 204.657 1676.81 207.465 1635.05 231.331C1604.98 248.515 1587.74 258.005 1585.41 258.735C1581.95 259.802 1574.18 260.476 1571.4 259.971Z" fill="#738192"/>
<path d="M1080.75 234.562C1080.75 278.404 1079.39 314.429 1077.69 314.429C1075.99 314.429 1072.93 312.39 1070.9 309.671C1068.86 306.952 1059 301.514 1049.14 297.096C1022.64 285.541 987.97 286.561 962.48 299.815C922.377 320.207 908.782 358.611 911.501 444.595C913.541 502.031 918.638 522.762 938.01 546.213C968.258 582.578 1035.89 585.636 1072.25 551.99L1087.21 538.056L1089.59 547.912C1094.69 571.022 1090.95 569.323 1136.15 569.323H1177.61L1175.23 538.056C1174.21 520.723 1172.85 427.262 1172.85 330.402L1172.51 154.695H1126.63H1080.75V234.562ZM1057.98 372.545C1062.06 374.584 1068.86 379.682 1073.27 383.42C1080.07 389.878 1080.75 393.276 1080.75 431.68C1080.75 470.084 1080.07 473.483 1073.27 479.94C1061.38 490.816 1051.86 494.554 1037.59 494.554C1012.44 494.214 1002.58 476.542 1002.58 431.68C1002.58 399.394 1007.68 383.081 1019.92 374.244C1029.09 367.787 1047.44 367.107 1057.98 372.545Z" fill="#2C6E8D"/>
<path d="M0 367.105V569.321H47.5802H95.1604V499.99V430.999L140.362 428.96C199.157 426.581 223.967 419.104 249.116 396.333C271.887 375.602 284.462 330.741 281.063 282.141C278.344 246.116 268.148 218.587 249.796 200.575C222.268 172.706 182.844 164.89 67.292 164.89H0V367.105ZM161.093 253.253C176.726 259.03 184.203 275.684 182.844 302.192C181.824 323.264 180.465 326.322 170.609 335.159C160.073 344.675 158.034 345.015 127.447 345.015H95.1604V297.434V249.854H123.709C139.682 249.854 156.335 251.214 161.093 253.253Z" fill="#2C6E8D"/>
<path d="M409.53 290.976C382.001 295.054 349.714 311.367 336.46 328.02C311.65 359.287 301.455 409.247 308.592 462.944C318.108 533.295 353.113 567.621 423.124 574.758C483.619 580.875 534.937 555.386 556.688 508.485C564.845 491.492 565.865 484.355 566.884 441.533C567.904 403.809 567.224 389.195 562.466 373.562C548.872 325.302 516.585 298.453 463.907 290.636C437.058 286.898 437.738 286.898 409.53 290.976ZM458.469 374.241C470.704 383.078 475.802 399.391 475.802 431.677C475.802 476.879 464.927 494.551 436.718 494.551C421.425 494.551 409.869 486.395 404.092 471.781C402.393 467.362 401.033 449.01 401.033 431.337C401.033 396.672 405.111 383.757 418.706 374.241C428.562 367.104 448.273 367.444 458.469 374.241Z" fill="#2C6E8D"/>
<path d="M760.944 290.637C741.232 294.036 720.841 304.571 707.586 317.826C701.809 323.264 696.371 328.022 695.691 328.022C694.672 328.022 692.972 321.225 691.953 312.728L689.574 297.434H646.752H603.929L606.308 318.166C607.328 329.721 608.347 390.896 608.347 454.109V569.321H655.928H703.508V479.938C703.508 430.999 704.867 389.196 706.227 387.157C711.325 379.34 732.736 368.805 743.611 368.805C772.839 368.805 774.878 376.282 774.878 482.997V569.321H820.759H866.64V466.344C866.64 351.472 864.601 337.538 845.569 315.787C826.197 293.696 795.27 284.52 760.944 290.637Z" fill="#2C6E8D"/>
<path d="M1327.15 289.614C1253.4 298.11 1218.73 337.534 1214.32 416.721C1209.56 495.908 1234.03 545.527 1287.72 566.258C1315.59 577.474 1373.03 577.134 1401.58 565.919C1428.77 555.383 1451.2 533.972 1463.43 507.123C1471.93 488.431 1472.95 480.954 1474.31 443.909C1476.69 380.016 1466.49 346.03 1437.6 319.861C1419.25 303.208 1400.22 295.051 1370.99 290.633C1347.2 287.235 1345.5 287.235 1327.15 289.614ZM1369.63 377.297C1378.81 385.454 1383.22 403.466 1383.22 431.674C1383.22 476.196 1372.01 494.548 1345.16 494.548C1316.27 494.548 1307.1 480.274 1307.1 433.374C1306.76 398.028 1312.53 379.676 1326.47 372.539C1336.66 367.441 1361.81 370.16 1369.63 377.297Z" fill="#2C6E8D"/>
<path d="M1471.48 261.508C1465.78 260.379 1461.26 258.006 1417.54 232.869C1375.23 208.522 1370.88 205.867 1367.54 202.534C1363.53 198.524 1360.14 192.536 1359.07 187.565C1358.67 185.644 1358.51 166.947 1358.62 129.1L1358.79 73.4585L1360.09 70.2952C1361.78 66.0586 1365.17 60.8616 1368 58.1502C1370.59 55.6647 1461.26 3.01756 1466.06 1.20993C1470.13 -0.315251 1481.2 -0.428228 1485.55 1.04047C1490.35 2.67863 1581.18 55.3258 1584.18 58.2067C1587.57 61.5395 1590.5 66.1151 1592.08 70.6906L1593.5 74.5883V130.286C1593.5 179.883 1593.38 186.266 1592.59 189.034C1591.01 194.4 1588.41 198.693 1584.52 202.534C1581.13 205.867 1576.44 208.692 1534.86 232.699C1504.92 249.985 1487.75 259.531 1485.43 260.266C1481.99 261.339 1474.25 262.017 1471.48 261.508Z" fill="#2C6E8D"/>
</svg>
