<svg width="901" height="901" viewBox="0 0 901 901" fill="none" xmlns="http://www.w3.org/2000/svg">
<path d="M497.481 0.415154C484.014 3.08184 473.348 8.68188 370.148 68.0152C270.281 125.482 260.014 131.749 252.148 139.615C242.681 149.082 234.681 163.215 232.148 174.948C231.214 179.482 230.814 223.615 231.081 312.949L231.481 444.282L234.548 451.749C238.548 461.749 246.548 474.015 253.214 480.415C259.348 486.282 473.348 610.549 484.681 614.815C494.281 618.415 520.414 618.682 530.681 615.215C542.014 611.349 756.414 487.082 763.481 480.282C771.481 472.415 778.414 461.615 782.148 450.815L785.481 441.615V310.148C785.481 193.082 785.214 178.015 783.348 171.482C779.615 158.815 773.481 148.682 764.281 139.615C756.281 131.749 745.214 125.082 647.081 68.4152C576.414 27.6152 535.881 5.08184 530.414 3.3485C522.281 0.815178 504.014 -0.784797 497.481 0.415154Z" fill="#738192"/>
<path d="M659.803 691.768C659.803 718.533 658.973 740.527 657.936 740.527C656.899 740.527 655.031 739.282 653.786 737.622C652.541 735.962 646.524 732.642 640.507 729.945C624.323 722.891 603.16 723.513 587.599 731.605C563.115 744.054 554.816 767.5 556.476 819.994C557.721 855.059 560.833 867.715 572.66 882.032C591.126 904.233 632.415 906.1 654.616 885.559L663.746 877.052L665.198 883.069C668.31 897.178 666.028 896.141 693.624 896.141H718.937L717.484 877.052C716.862 866.47 716.032 809.412 716.032 750.279L715.824 643.009H659.803V691.768ZM645.902 776.007C648.392 777.252 652.541 780.364 655.239 782.646C659.388 786.589 659.803 788.663 659.803 812.109C659.803 835.555 659.388 837.63 655.239 841.572C647.977 848.212 642.167 850.494 633.453 850.494C618.099 850.287 612.082 839.497 612.082 812.109C612.082 792.398 615.194 782.439 622.664 777.044C628.266 773.102 639.47 772.687 645.902 776.007Z" fill="#2C6E8D"/>
<path d="M0 896.141H58.0959V811.695L85.6914 810.45C121.586 808.998 136.733 804.433 152.087 790.531C165.988 777.875 173.665 750.487 171.59 720.816C169.93 698.823 163.706 682.017 152.502 671.02C135.695 654.006 111.627 649.234 41.0821 649.234H0V896.141ZM98.348 703.18C107.892 706.707 112.457 716.874 111.627 733.058C111.005 745.922 110.175 747.789 104.158 753.184C97.7256 758.994 96.4807 759.201 77.807 759.201H58.0959V701.105H75.5246C85.2765 701.105 95.4432 701.935 98.348 703.18Z" fill="#2C6E8D"/>
<path d="M250.02 726.211C233.213 728.701 213.502 738.66 205.41 748.827C190.264 767.915 184.039 798.416 188.397 831.198C194.206 874.148 215.577 895.104 258.319 899.461C295.252 903.196 326.582 887.634 339.861 859.001C344.841 848.627 345.463 844.27 346.085 818.127C346.708 795.096 346.293 786.174 343.388 776.63C335.089 747.167 315.378 730.775 283.217 726.003C266.826 723.721 267.241 723.721 250.02 726.211ZM279.898 777.045C287.367 782.439 290.479 792.399 290.479 812.11C290.479 839.705 283.84 850.495 266.619 850.495C257.282 850.495 250.227 845.515 246.7 836.593C245.663 833.896 244.833 822.691 244.833 811.902C244.833 790.739 247.322 782.854 255.622 777.045C261.639 772.688 273.673 772.895 279.898 777.045Z" fill="#2C6E8D"/>
<path d="M464.56 726.003C452.525 728.078 440.076 734.51 431.984 742.602C428.457 745.922 425.137 748.827 424.722 748.827C424.1 748.827 423.063 744.677 422.44 739.49L420.988 730.153H368.701L370.154 742.81C370.776 749.864 371.399 787.212 371.399 825.804V896.141H429.495V841.573C429.495 811.695 430.325 786.174 431.154 784.929C434.267 780.157 447.338 773.725 453.978 773.725C471.822 773.725 473.067 778.29 473.067 843.44V896.141H529.088V833.273C529.088 763.143 527.843 754.636 516.224 741.357C504.397 727.871 485.516 722.269 464.56 726.003Z" fill="#2C6E8D"/>
<path d="M810.23 725.381C765.206 730.568 744.042 754.637 741.345 802.981C738.44 851.325 753.379 881.618 786.162 894.274C803.176 901.121 838.241 900.914 855.669 894.067C872.268 887.635 885.962 874.563 893.432 858.172C898.619 846.76 899.241 842.195 900.071 819.579C901.524 780.572 895.299 759.824 877.663 743.847C866.459 733.681 854.839 728.701 836.996 726.004C822.472 723.929 821.434 723.929 810.23 725.381ZM836.166 778.912C841.768 783.892 844.465 794.889 844.465 812.11C844.465 839.291 837.618 850.495 821.227 850.495C803.591 850.495 797.989 841.78 797.989 813.147C797.781 791.569 801.308 780.365 809.815 776.008C816.04 772.895 831.394 774.555 836.166 778.912Z" fill="#2C6E8D"/>
<path d="M352.481 0.415154C339.014 3.08184 328.348 8.68188 225.148 68.0152C125.281 125.482 115.014 131.749 107.148 139.615C97.6811 149.082 89.6811 163.215 87.1478 174.948C86.2144 179.482 85.8144 223.615 86.0811 312.949L86.4811 444.282L89.5478 451.749C93.5478 461.749 101.548 474.015 108.214 480.415C114.348 486.282 328.348 610.549 339.681 614.815C349.281 618.415 375.414 618.682 385.681 615.215C397.014 611.349 611.414 487.082 618.481 480.282C626.481 472.415 633.414 461.615 637.148 450.815L640.481 441.615V310.148C640.481 193.082 640.214 178.015 638.348 171.482C634.615 158.815 628.481 148.682 619.281 139.615C611.281 131.749 600.214 125.082 502.081 68.4152C431.414 27.6152 390.881 5.08184 385.414 3.3485C377.281 0.815178 359.014 -0.784797 352.481 0.415154Z" fill="#2C6E8D"/>
</svg>
