<svg width="2113" height="2113" viewBox="0 0 2113 2113" fill="none" xmlns="http://www.w3.org/2000/svg">
<path d="M2113 1056.5C2113 473.011 1639.99 0 1056.5 0C473.011 0 0 473.011 0 1056.5C0 1639.99 473.011 2113 1056.5 2113C1639.99 2113 2113 1639.99 2113 1056.5Z" fill="#D9D9D9"/>
<path d="M1187.47 1624.63C1162.37 1619.66 1142.48 1609.22 950.137 1498.63C764.002 1391.52 744.866 1379.84 730.204 1365.18C712.56 1347.54 697.649 1321.2 692.927 1299.33C691.188 1290.88 690.442 1208.62 690.939 1042.12L691.685 797.333L697.401 783.417C704.856 764.778 719.767 741.915 732.192 729.987C743.624 719.052 1142.48 487.439 1163.61 479.487C1181.5 472.777 1230.21 472.28 1249.34 478.741C1270.47 485.948 1670.07 717.561 1683.25 730.235C1698.16 744.897 1711.08 765.027 1718.04 785.156L1724.25 802.303V1047.34C1724.25 1265.53 1723.75 1293.61 1720.27 1305.79C1713.32 1329.4 1701.88 1348.28 1684.74 1365.18C1669.83 1379.84 1649.2 1392.27 1466.3 1497.89C1334.58 1573.93 1259.04 1615.93 1248.85 1619.16C1233.69 1623.88 1199.64 1626.86 1187.47 1624.63Z" fill="#738192"/>
<path d="M903.024 1624.63C877.924 1619.66 858.043 1609.22 665.695 1498.63C479.56 1391.52 460.425 1379.84 445.763 1365.18C428.118 1347.54 413.208 1321.2 408.486 1299.33C406.746 1290.88 406.001 1208.62 406.498 1042.12L407.243 797.333L412.959 783.417C420.414 764.778 435.325 741.915 447.751 729.987C459.182 719.052 858.043 487.439 879.167 479.487C897.06 472.777 945.768 472.28 964.903 478.741C986.027 485.948 1385.63 717.561 1398.8 730.235C1413.72 744.897 1426.64 765.027 1433.6 785.156L1439.81 802.303V1047.34C1439.81 1265.53 1439.31 1293.61 1435.83 1305.79C1428.87 1329.4 1417.44 1348.28 1400.3 1365.18C1385.38 1379.84 1364.76 1392.27 1181.85 1497.89C1050.14 1573.93 974.595 1615.93 964.406 1619.16C949.247 1623.88 915.201 1626.86 903.024 1624.63Z" fill="#2C6E8D"/>
</svg>
