<svg width="1920" height="1080" viewBox="0 0 1920 1080" fill="none" xmlns="http://www.w3.org/2000/svg">
<path d="M0 25C0 11.1929 11.1929 0 25 0H1895C1908.81 0 1920 11.1929 1920 25V1055C1920 1068.81 1908.81 1080 1895 1080H25C11.1928 1080 0 1068.81 0 1055V25Z" fill="#EFEFEF"/>
<path d="M979.178 353.169C973.597 354.274 969.176 356.595 926.406 381.185C885.016 405.002 880.761 407.599 877.501 410.859C873.578 414.783 870.262 420.64 869.212 425.503C868.825 427.382 868.66 445.673 868.77 482.696L868.936 537.127L870.207 540.221C871.865 544.366 875.18 549.449 877.943 552.102C880.485 554.533 969.176 606.035 973.873 607.803C977.852 609.295 988.683 609.406 992.938 607.969C997.635 606.367 1086.49 554.865 1089.42 552.047C1092.74 548.786 1095.61 544.31 1097.16 539.834L1098.54 536.021V481.536C1098.54 433.018 1098.43 426.774 1097.65 424.066C1096.11 418.817 1093.56 414.617 1089.75 410.859C1086.44 407.599 1081.85 404.836 1041.18 381.351C1011.89 364.441 995.093 355.103 992.827 354.384C989.456 353.334 981.886 352.671 979.178 353.169Z" fill="#738192"/>
<path d="M1046.45 639.696C1046.45 650.789 1046.11 659.904 1045.68 659.904C1045.25 659.904 1044.47 659.388 1043.96 658.7C1043.44 658.012 1040.95 656.636 1038.45 655.518C1031.75 652.594 1022.98 652.852 1016.53 656.206C1006.38 661.365 1002.94 671.082 1003.63 692.838C1004.14 707.371 1005.43 712.616 1010.34 718.55C1017.99 727.751 1035.1 728.525 1044.3 720.011L1048.09 716.486L1048.69 718.98C1049.98 724.827 1049.03 724.397 1060.47 724.397H1070.96L1070.36 716.486C1070.1 712.1 1069.76 688.453 1069.76 663.945L1069.67 619.488H1046.45V639.696ZM1040.69 674.608C1041.72 675.124 1043.44 676.414 1044.56 677.36C1046.28 678.994 1046.45 679.854 1046.45 689.571C1046.45 699.288 1046.28 700.147 1044.56 701.781C1041.55 704.533 1039.14 705.479 1035.53 705.479C1029.17 705.393 1026.67 700.921 1026.67 689.571C1026.67 681.401 1027.96 677.274 1031.06 675.038C1033.38 673.404 1038.02 673.232 1040.69 674.608Z" fill="#2C6E8D"/>
<path d="M773 724.398H797.078V689.399L808.514 688.883C823.391 688.281 829.668 686.39 836.031 680.628C841.793 675.383 844.975 664.032 844.115 651.735C843.427 642.62 840.847 635.655 836.203 631.097C829.238 624.046 819.263 622.068 790.026 622.068H773V724.398ZM813.76 644.426C817.715 645.888 819.607 650.101 819.263 656.809C819.005 662.14 818.661 662.914 816.168 665.15C813.502 667.558 812.986 667.643 805.247 667.643H797.078V643.566H804.301C808.342 643.566 812.556 643.91 813.76 644.426Z" fill="#2C6E8D"/>
<path d="M876.62 653.97C869.654 655.002 861.485 659.13 858.131 663.343C851.854 671.255 849.274 683.895 851.08 697.482C853.488 715.282 862.345 723.967 880.059 725.773C895.366 727.321 908.35 720.872 913.854 709.005C915.918 704.705 916.175 702.899 916.433 692.065C916.691 682.519 916.519 678.822 915.316 674.866C911.876 662.656 903.707 655.862 890.378 653.884C883.585 652.939 883.757 652.939 876.62 653.97ZM889.002 675.038C892.098 677.274 893.388 681.402 893.388 689.571C893.388 701.008 890.636 705.479 883.499 705.479C879.629 705.479 876.706 703.415 875.244 699.718C874.814 698.6 874.47 693.956 874.47 689.485C874.47 680.714 875.502 677.446 878.941 675.038C881.435 673.232 886.423 673.318 889.002 675.038Z" fill="#2C6E8D"/>
<path d="M965.534 653.885C960.547 654.745 955.387 657.411 952.034 660.764C950.572 662.14 949.196 663.344 949.024 663.344C948.766 663.344 948.336 661.624 948.078 659.474L947.476 655.605H925.806L926.408 660.85C926.666 663.774 926.924 679.252 926.924 695.247V724.398H951.002V701.782C951.002 689.399 951.346 678.822 951.69 678.306C952.979 676.329 958.397 673.663 961.149 673.663C968.544 673.663 969.06 675.555 969.06 702.556V724.398H992.277V698.342C992.277 669.277 991.761 665.752 986.946 660.248C982.044 654.659 974.219 652.337 965.534 653.885Z" fill="#2C6E8D"/>
<path d="M1108.8 653.627C1090.14 655.776 1081.36 665.751 1080.25 685.787C1079.04 705.823 1085.23 718.378 1098.82 723.624C1105.87 726.461 1120.4 726.375 1127.63 723.538C1134.51 720.872 1140.18 715.454 1143.28 708.661C1145.43 703.932 1145.69 702.04 1146.03 692.667C1146.63 676.5 1144.05 667.901 1136.74 661.28C1132.1 657.066 1127.28 655.003 1119.89 653.885C1113.87 653.025 1113.44 653.025 1108.8 653.627ZM1119.54 675.812C1121.87 677.876 1122.98 682.434 1122.98 689.571C1122.98 700.836 1120.15 705.479 1113.35 705.479C1106.04 705.479 1103.72 701.868 1103.72 690.001C1103.64 681.058 1105.1 676.414 1108.62 674.609C1111.2 673.319 1117.57 674.007 1119.54 675.812Z" fill="#2C6E8D"/>
<path d="M919.084 353.169C913.503 354.274 909.082 356.595 866.312 381.185C824.922 405.002 820.667 407.599 817.407 410.859C813.484 414.783 810.168 420.64 809.118 425.503C808.731 427.382 808.566 445.673 808.676 482.696L808.842 537.127L810.113 540.221C811.771 544.366 815.086 549.449 817.849 552.102C820.391 554.533 909.082 606.035 913.779 607.803C917.758 609.295 928.589 609.406 932.844 607.969C937.541 606.367 1026.4 554.865 1029.33 552.047C1032.64 548.786 1035.52 544.31 1037.06 539.834L1038.44 536.021V481.536C1038.44 433.018 1038.33 426.774 1037.56 424.066C1036.01 418.817 1033.47 414.617 1029.66 410.859C1026.34 407.599 1021.76 404.836 981.085 381.351C951.798 364.441 934.999 355.103 932.733 354.384C929.362 353.334 921.792 352.671 919.084 353.169Z" fill="#2C6E8D"/>
</svg>
