<svg width="405" height="405" viewBox="0 0 405 405" fill="none" xmlns="http://www.w3.org/2000/svg">
<path d="M405 202.5C405 314.338 314.338 405 202.5 405C90.6623 405 0 314.338 0 202.5C0 90.6623 90.6623 0 202.5 0C314.338 0 405 90.6623 405 202.5Z" fill="#D9D9D9"/>
<path d="M191.12 74.5314C160.944 77.3982 133.031 90.4746 111.706 111.749C84.8993 138.606 71.169 176.025 74.4884 213.544C78.1599 255.64 101.647 292.606 138.412 314.081C153.299 322.782 170.198 328.315 188.605 330.477C194.741 331.232 210.584 331.232 216.77 330.477C260.023 325.448 297.592 299.446 317.056 261.122C324.198 247.04 328.624 232.505 330.434 216.813C331.189 210.627 331.189 194.784 330.434 188.648C325.807 149.62 305.287 116.225 272.848 94.9507C249.008 79.3093 219.134 71.8658 191.12 74.5314ZM253.786 200.568C253.635 200.719 242.52 195.991 228.991 190.057L204.448 179.294L204.297 148.413L204.196 117.533L229.092 158.925C242.822 181.708 253.937 200.467 253.786 200.568ZM201.078 148.715L200.927 179.193L176.334 189.956C162.805 195.891 151.69 200.669 151.639 200.618C151.438 200.317 200.424 118.287 200.827 118.237C201.028 118.237 201.129 131.967 201.078 148.715ZM254.993 205.245C254.993 205.547 204.951 234.919 204.448 234.919C204.297 234.919 204.196 223.2 204.196 208.816V182.714L229.595 193.829C243.577 199.964 254.993 205.094 254.993 205.245ZM201.179 209.068C201.179 233.561 201.129 235.019 200.324 234.667C199.318 234.315 151.488 206.402 150.483 205.597C150.03 205.245 156.92 202.027 174.875 194.13C188.656 188.095 200.223 183.166 200.575 183.116C201.028 183.116 201.179 188.648 201.179 209.068ZM175.328 230.694C188.857 238.59 200.223 245.33 200.575 245.682C201.028 246.134 201.179 250.862 201.078 267.107L200.927 287.928L177.289 254.533C164.313 236.126 152.947 220.032 151.991 218.674C151.036 217.366 150.382 216.31 150.533 216.31C150.633 216.31 161.799 222.798 175.328 230.694ZM230.802 250.359C217.776 268.817 206.409 284.861 205.655 285.917L204.196 287.928V245.732L229.243 231.046C242.973 222.999 254.289 216.461 254.39 216.561C254.49 216.662 243.878 231.851 230.802 250.359Z" fill="#2C6E8D"/>
</svg>
