<svg width="962" height="1072" viewBox="0 0 962 1072" fill="none" xmlns="http://www.w3.org/2000/svg">
<path d="M462.333 0.705066C438.969 5.33161 420.463 15.0474 241.415 117.988C68.151 217.69 50.3387 228.563 36.6904 242.211C20.2662 258.635 6.38654 283.156 1.99132 303.513C0.372032 311.378 -0.32195 387.947 0.140705 542.936L0.834687 770.794L6.15522 783.748C13.095 801.098 26.9747 822.38 38.541 833.484C49.1821 843.662 420.463 1059.26 440.125 1066.66C456.781 1072.91 502.121 1073.37 519.933 1067.36C539.596 1060.65 911.571 845.05 923.831 833.252C937.711 819.604 949.74 800.867 956.217 782.129L962 766.167V538.079C962 334.973 961.537 308.833 958.299 297.498C951.822 275.522 941.18 257.941 925.219 242.211C911.339 228.563 892.139 216.996 721.882 118.682C599.279 47.8959 528.955 8.80153 519.471 5.79427C505.36 1.39905 473.668 -1.37688 462.333 0.705066Z" fill="white"/>
<path d="M457.164 203.099C322.231 212.299 205.031 301.5 159.164 430.166C152.098 449.633 145.564 476.699 142.498 498.433C139.431 519.366 139.164 564.566 141.831 585.766C155.431 694.566 218.498 789.233 313.431 843.366C335.298 855.9 369.164 870.033 377.831 870.299C384.631 870.433 390.364 867.633 393.298 862.7C395.698 858.7 395.831 856.033 395.431 827.1C395.298 809.9 395.031 795.633 394.898 795.633C394.764 795.5 389.831 796.166 383.964 797.233C348.898 802.966 317.698 795.099 297.831 775.233C290.098 767.5 287.698 763.766 279.964 747.766C267.431 721.633 260.098 711.633 245.964 701.366C235.564 693.9 229.964 688.299 229.964 685.5C229.964 678.833 246.098 676.566 258.898 681.5C275.564 687.766 286.631 697.366 298.764 715.9C315.564 741.366 336.631 752.7 363.431 750.7C373.698 749.9 394.498 744.166 396.098 741.633C396.498 740.833 397.831 736.566 398.764 732.166C401.298 721.5 407.831 708.033 413.431 701.766C418.764 695.766 419.298 696.166 401.964 693.766C388.231 691.9 364.364 685.766 352.898 681.233C304.631 662.166 276.764 626.566 266.364 570.7C263.031 552.833 263.031 508.966 266.364 495.1C271.164 475.233 280.098 457.1 292.364 442.033L298.098 434.966L296.098 428.699C289.164 407.233 289.964 379.366 298.231 353.5C300.898 345.366 301.431 344.566 305.431 343.766C319.698 341.1 352.364 352.833 382.231 371.233L395.298 379.366L406.898 376.699C434.098 370.433 446.631 369.099 480.631 369.099C514.764 369.099 527.164 370.433 554.364 376.699L566.098 379.366L576.364 372.966C596.764 360.166 616.898 350.699 630.631 347.233C641.964 344.433 651.831 343.1 656.098 343.9C659.831 344.566 660.498 345.5 663.031 353.5C670.631 377.233 671.964 407.366 666.098 425.766L663.298 434.433L665.964 437.766C679.031 453.9 689.298 473.633 694.231 492.299C697.698 505.366 699.031 538.699 696.764 557.366C686.898 638.433 642.498 682.033 557.964 693.766C541.964 695.9 542.231 695.766 546.898 700.833C553.031 707.233 558.898 718.7 562.231 730.566C564.898 740.433 565.164 744.7 565.831 801.1C566.764 866.7 566.498 865.366 574.631 868.7C580.898 871.366 588.231 870.433 601.298 865.233C647.698 847.233 684.231 823.766 719.164 789.366C774.764 734.7 809.698 663.766 819.431 585.766C822.098 564.566 821.831 519.366 818.764 498.433C795.698 335.899 665.298 214.299 502.364 203.099C480.898 201.633 479.031 201.633 457.164 203.099Z" fill="#2C6E8D"/>
</svg>
