<svg width="962" height="1072" viewBox="0 0 962 1072" fill="none" xmlns="http://www.w3.org/2000/svg">
<path d="M462.333 0.910144C438.969 5.53669 420.463 15.2524 241.415 118.193C68.151 217.895 50.3387 228.768 36.6904 242.416C20.2662 258.84 6.38654 283.361 1.99132 303.718C0.372032 311.583 -0.32195 388.152 0.140705 543.142L0.834687 770.999L6.15522 783.953C13.095 801.303 26.9747 822.585 38.541 833.689C49.1821 843.867 420.463 1059.46 440.125 1066.87C456.781 1073.11 502.121 1073.58 519.933 1067.56C539.596 1060.85 911.571 845.255 923.831 833.457C937.711 819.809 949.74 801.072 956.217 782.334L962 766.372V538.284C962 335.178 961.537 309.038 958.299 297.703C951.822 275.727 941.18 258.146 925.219 242.416C911.339 228.768 892.139 217.201 721.882 118.887C599.279 48.1009 528.955 9.0066 519.471 5.99935C505.36 1.60413 473.668 -1.1718 462.333 0.910144Z" fill="white"/>
<path d="M528.78 246.046C496.066 251.158 473.121 262.29 454.266 282.167C438.363 298.979 428.481 318.629 422.915 344.414C420.757 354.183 420.53 360.089 420.076 405.979L419.621 456.866H330V560.232L374.64 560.459L419.167 560.8L419.735 826.029H526.508V560.232H570.807C595.229 560.232 615.107 560.118 615.107 559.891C618.174 539.218 628.283 458.343 627.942 457.662C627.715 457.207 604.77 456.866 576.941 456.866H526.394L526.735 414.498C527.076 373.152 527.189 372.129 529.802 365.541C535.141 352.251 546.272 344.3 563.083 342.142C567.627 341.574 585.006 341.006 601.817 341.006H632.145L631.918 294.662L631.577 248.432L616.811 247.069C592.616 244.91 540.138 244.229 528.78 246.046Z" fill="#2C6E8D"/>
</svg>
