<svg width="962" height="1072" viewBox="0 0 962 1072" fill="none" xmlns="http://www.w3.org/2000/svg">
<path d="M462.333 0.705066C438.969 5.33161 420.463 15.0474 241.415 117.988C68.151 217.69 50.3387 228.563 36.6904 242.211C20.2662 258.635 6.38654 283.156 1.99132 303.513C0.372032 311.378 -0.32195 387.947 0.140705 542.936L0.834687 770.794L6.15522 783.748C13.095 801.098 26.9747 822.38 38.541 833.484C49.1821 843.662 420.463 1059.26 440.125 1066.66C456.781 1072.91 502.121 1073.37 519.933 1067.36C539.596 1060.65 911.571 845.05 923.831 833.252C937.711 819.604 949.74 800.867 956.217 782.129L962 766.167V538.079C962 334.973 961.537 308.833 958.299 297.498C951.822 275.522 941.18 257.941 925.219 242.211C911.339 228.563 892.139 216.996 721.882 118.682C599.279 47.8959 528.955 8.80153 519.471 5.79427C505.36 1.39905 473.668 -1.37688 462.333 0.705066Z" fill="white"/>
<path d="M575.506 293.805C527.68 302.479 489.818 337.41 477.276 384.767C475.049 392.855 474.58 397.661 474.58 413.837C474.463 424.504 474.814 435.406 475.4 438.219L476.221 443.377L468.367 442.556C416.673 437.867 374.943 426.028 333.33 404.343C294.882 384.298 254.911 352.766 230.412 323.344C226.661 318.89 223.144 315.49 222.558 315.725C221.855 315.959 219.393 320.648 216.931 326.274C200.052 364.371 203.217 408.328 225.137 442.556C231.584 452.52 242.134 464.359 250.691 471.158L259.482 478.308H254.676C244.361 478.308 222.91 472.447 211.305 466.586C208.843 465.297 206.264 464.242 205.796 464.242C204.154 464.242 206.264 485.693 208.96 496.008C219.627 536.449 249.636 568.45 289.608 581.813C296.172 584.04 300.861 586.15 299.923 586.502C294.648 588.494 277.299 589.901 263.819 589.432L248.581 588.729L249.401 591.777C250.691 596.934 259.365 613.345 264.757 620.847C285.388 649.917 319.264 669.845 352.32 672.541C357.243 672.893 361.346 673.596 361.346 674.182C361.346 676.057 335.089 692.351 319.03 700.322C282.457 718.491 246.236 726.345 203.686 725.407L182 724.938L188.095 728.806C197.121 734.433 224.316 748.147 236.507 753.188C302.267 780.5 379.046 786.713 451.488 770.654C558.04 746.975 645.838 672.893 690.147 569.153C709.019 524.844 718.514 481.239 719.569 434.351L719.92 413.251L728.477 406.453C739.262 397.661 751.453 386.056 760.713 375.741C768.567 366.832 780.054 351.477 779.351 350.89C779.116 350.656 775.6 351.828 771.497 353.469C755.907 359.799 719.92 368.942 714.528 367.887C713.239 367.653 714.177 366.481 717.576 364.253C726.485 358.393 742.309 342.099 748.991 332.018C754.852 323.344 763.409 306.113 763.409 303.065C763.409 302.362 756.258 305.409 747.467 309.746C731.525 317.483 710.777 324.985 694.601 328.853L686.044 330.846L678.894 324.282C651.464 298.845 611.961 287.24 575.506 293.805Z" fill="#2C6E8D"/>
</svg>
