<svg width="962" height="1072" viewBox="0 0 962 1072" fill="none" xmlns="http://www.w3.org/2000/svg">
<path d="M462.333 0.705066C438.969 5.33161 420.463 15.0474 241.415 117.988C68.151 217.69 50.3387 228.563 36.6904 242.211C20.2662 258.635 6.38654 283.156 1.99132 303.513C0.372032 311.378 -0.32195 387.947 0.140705 542.936L0.834687 770.794L6.15522 783.748C13.095 801.098 26.9747 822.38 38.541 833.484C49.1821 843.662 420.463 1059.26 440.125 1066.66C456.781 1072.91 502.121 1073.37 519.933 1067.36C539.596 1060.65 911.571 845.05 923.831 833.252C937.711 819.604 949.74 800.867 956.217 782.129L962 766.167V538.079C962 334.973 961.537 308.833 958.299 297.498C951.822 275.522 941.18 257.941 925.219 242.211C911.339 228.563 892.139 216.996 721.882 118.682C599.279 47.8959 528.955 8.80153 519.471 5.79427C505.36 1.39905 473.668 -1.37688 462.333 0.705066Z" fill="white"/>
<path d="M390.482 323.679C338.625 326.248 255.932 333.607 239.814 337.11C217.857 341.899 196.95 362.806 191.461 385.464C187.373 402.4 182 485.91 182 533.212C182 580.515 187.373 664.025 191.461 680.96C196.95 703.619 217.857 724.409 239.814 729.314C248.107 731.066 294.125 735.972 328.58 738.775C426.456 746.6 534.143 746.6 633.77 738.775C667.875 736.089 713.659 731.183 722.186 729.314C744.26 724.409 765.05 703.619 770.539 680.96C774.627 664.025 780 580.515 780 533.212C780 485.91 774.627 402.4 770.539 385.464C765.05 362.806 744.143 342.016 722.186 337.11C705.133 333.373 624.894 326.365 568.014 323.562C524.215 321.46 434.164 321.46 390.482 323.679ZM506.579 483.574C547.107 510.554 580.161 532.862 580.161 533.212C580.161 533.796 433.814 631.555 431.829 632.256C431.245 632.49 430.777 591.611 430.777 533.212C430.777 474.814 431.245 433.935 431.829 434.169C432.413 434.285 466.05 456.594 506.579 483.574Z" fill="#2C6E8D"/>
</svg>
